%TF.GenerationSoftware,Altium Limited,Altium Designer,22.7.1 (60)*%
G04 Layer_Color=2752767*
%FSLAX45Y45*%
%MOMM*%
%TF.SameCoordinates,6F5B2F55-B7AD-49D5-9618-4F223791D6AE*%
%TF.FilePolarity,Positive*%
%TF.FileFunction,Drawing*%
%TF.Part,Single*%
G01*
G75*
%TA.AperFunction,NonConductor*%
%ADD42C,0.12700*%
%ADD64C,0.16933*%
%ADD65C,0.10160*%
D42*
X349200Y2699200D02*
Y2800800D01*
X450800D01*
Y2699200D01*
X349200D01*
Y3207200D02*
Y3308800D01*
X450800D01*
Y3207200D01*
X349200D01*
X460027Y7522599D02*
X510827Y7573399D01*
X561627Y7522599D01*
X510827Y7471799D01*
X460027Y7522599D01*
X4460026D02*
X4510826Y7573399D01*
X4561626Y7522599D01*
X4510826Y7471799D01*
X4460026Y7522599D01*
Y522599D02*
X4510826Y573399D01*
X4561626Y522599D01*
X4510826Y471799D01*
X4460026Y522599D01*
X449200Y500000D02*
X500000Y550800D01*
X550800Y500000D01*
X500000Y449200D01*
X449200Y500000D01*
X3750000Y4403200D02*
X3699200Y4504800D01*
X3800800D01*
X3750000Y4403200D01*
Y4149200D02*
X3699200Y4250800D01*
X3800800D01*
X3750000Y4149200D01*
Y3895200D02*
X3699200Y3996800D01*
X3800800D01*
X3750000Y3895200D01*
Y3053200D02*
X3699200Y3154800D01*
X3800800D01*
X3750000Y3053200D01*
Y2799200D02*
X3699200Y2900800D01*
X3800800D01*
X3750000Y2799200D01*
Y2545200D02*
X3699200Y2646800D01*
X3800800D01*
X3750000Y2545200D01*
Y1803200D02*
X3699200Y1904800D01*
X3800800D01*
X3750000Y1803200D01*
Y1549200D02*
X3699200Y1650800D01*
X3800800D01*
X3750000Y1549200D01*
Y1295200D02*
X3699200Y1396800D01*
X3800800D01*
X3750000Y1295200D01*
X1250000Y6949200D02*
X1275400Y6974600D01*
X1300800D01*
X1275400Y7000000D01*
X1300800Y7025400D01*
X1275400D01*
X1250000Y7050800D01*
X1224600Y7025400D01*
X1199200D01*
X1224600Y7000000D01*
X1199200Y6974600D01*
X1224600D01*
X1250000Y6949200D01*
Y5299200D02*
X1275400Y5324600D01*
X1300800D01*
X1275400Y5350000D01*
X1300800Y5375400D01*
X1275400D01*
X1250000Y5400800D01*
X1224600Y5375400D01*
X1199200D01*
X1224600Y5350000D01*
X1199200Y5324600D01*
X1224600D01*
X1250000Y5299200D01*
X3900000Y6899200D02*
X3925400Y6924600D01*
X3950800D01*
X3925400Y6950000D01*
X3950800Y6975400D01*
X3925400D01*
X3900000Y7000800D01*
X3874600Y6975400D01*
X3849200D01*
X3874600Y6950000D01*
X3849200Y6924600D01*
X3874600D01*
X3900000Y6899200D01*
Y5249200D02*
X3925400Y5274600D01*
X3950800D01*
X3925400Y5300000D01*
X3950800Y5325400D01*
X3925400D01*
X3900000Y5350800D01*
X3874600Y5325400D01*
X3849200D01*
X3874600Y5300000D01*
X3849200Y5274600D01*
X3874600D01*
X3900000Y5249200D01*
X1250000Y3099200D02*
X1275400Y3124600D01*
X1300800D01*
X1275400Y3150000D01*
X1300800Y3175400D01*
X1275400D01*
X1250000Y3200800D01*
X1224600Y3175400D01*
X1199200D01*
X1224600Y3150000D01*
X1199200Y3124600D01*
X1224600D01*
X1250000Y3099200D01*
Y1449200D02*
X1275400Y1474600D01*
X1300800D01*
X1275400Y1500000D01*
X1300800Y1525400D01*
X1275400D01*
X1250000Y1550800D01*
X1224600Y1525400D01*
X1199200D01*
X1224600Y1500000D01*
X1199200Y1474600D01*
X1224600D01*
X1250000Y1449200D01*
X1350000Y4599200D02*
X1375400Y4624600D01*
X1400800D01*
X1375400Y4650000D01*
X1400800Y4675400D01*
X1375400D01*
X1350000Y4700800D01*
X1324600Y4675400D01*
X1299200D01*
X1324600Y4650000D01*
X1299200Y4624600D01*
X1324600D01*
X1350000Y4599200D01*
X1096000D02*
X1121400Y4624600D01*
X1146800D01*
X1121400Y4650000D01*
X1146800Y4675400D01*
X1121400D01*
X1096000Y4700800D01*
X1070600Y4675400D01*
X1045200D01*
X1070600Y4650000D01*
X1045200Y4624600D01*
X1070600D01*
X1096000Y4599200D01*
Y3837200D02*
X1121400Y3862600D01*
X1146800D01*
X1121400Y3888000D01*
X1146800Y3913400D01*
X1121400D01*
X1096000Y3938800D01*
X1070600Y3913400D01*
X1045200D01*
X1070600Y3888000D01*
X1045200Y3862600D01*
X1070600D01*
X1096000Y3837200D01*
X1350000D02*
X1375400Y3862600D01*
X1400800D01*
X1375400Y3888000D01*
X1400800Y3913400D01*
X1375400D01*
X1350000Y3938800D01*
X1324600Y3913400D01*
X1299200D01*
X1324600Y3888000D01*
X1299200Y3862600D01*
X1324600D01*
X1350000Y3837200D01*
X703200Y5949200D02*
X728600Y6000000D01*
X703200Y6050800D01*
X754000Y6025400D01*
X804800Y6050800D01*
X779400Y6000000D01*
X804800Y5949200D01*
X754000Y5974600D01*
X703200Y5949200D01*
X449200D02*
X474600Y6000000D01*
X449200Y6050800D01*
X500000Y6025400D01*
X550800Y6050800D01*
X525400Y6000000D01*
X550800Y5949200D01*
X500000Y5974600D01*
X449200Y5949200D01*
X195200D02*
X220600Y6000000D01*
X195200Y6050800D01*
X246000Y6025400D01*
X296800Y6050800D01*
X271400Y6000000D01*
X296800Y5949200D01*
X246000Y5974600D01*
X195200Y5949200D01*
X703200Y6507175D02*
X728600Y6557975D01*
X703200Y6608775D01*
X754000Y6583375D01*
X804800Y6608775D01*
X779400Y6557975D01*
X804800Y6507175D01*
X754000Y6532575D01*
X703200Y6507175D01*
X449200D02*
X474600Y6557975D01*
X449200Y6608775D01*
X500000Y6583375D01*
X550800Y6608775D01*
X525400Y6557975D01*
X550800Y6507175D01*
X500000Y6532575D01*
X449200Y6507175D01*
X195200D02*
X220600Y6557975D01*
X195200Y6608775D01*
X246000Y6583375D01*
X296800Y6608775D01*
X271400Y6557975D01*
X296800Y6507175D01*
X246000Y6532575D01*
X195200Y6507175D01*
X3820600Y7524600D02*
Y7499200D01*
X3871400D01*
Y7524600D01*
X3896800D01*
Y7575400D01*
X3871400D01*
Y7600800D01*
X3820600D01*
Y7575400D01*
X3795200D01*
Y7524600D01*
X3820600D01*
X4074600D02*
Y7499200D01*
X4125400D01*
Y7524600D01*
X4150800D01*
Y7575400D01*
X4125400D01*
Y7600800D01*
X4074600D01*
Y7575400D01*
X4049200D01*
Y7524600D01*
X4074600D01*
X866924D02*
Y7499200D01*
X917724D01*
Y7524600D01*
X943124D01*
Y7575400D01*
X917724D01*
Y7600800D01*
X866924D01*
Y7575400D01*
X841524D01*
Y7524600D01*
X866924D01*
X1120924D02*
Y7499200D01*
X1171724D01*
Y7524600D01*
X1197124D01*
Y7575400D01*
X1171724D01*
Y7600800D01*
X1120924D01*
Y7575400D01*
X1095524D01*
Y7524600D01*
X1120924D01*
X4245200Y6613225D02*
X4270600Y6664025D01*
X4245200Y6714825D01*
X4296000Y6689425D01*
X4346800Y6714825D01*
X4321400Y6664025D01*
X4346800Y6613225D01*
X4296000Y6638625D01*
X4245200Y6613225D01*
X4499200D02*
X4524600Y6664025D01*
X4499200Y6714825D01*
X4550000Y6689425D01*
X4600800Y6714825D01*
X4575400Y6664025D01*
X4600800Y6613225D01*
X4550000Y6638625D01*
X4499200Y6613225D01*
X4753200D02*
X4778600Y6664025D01*
X4753200Y6714825D01*
X4804000Y6689425D01*
X4854800Y6714825D01*
X4829400Y6664025D01*
X4854800Y6613225D01*
X4804000Y6638625D01*
X4753200Y6613225D01*
X2374600Y6524600D02*
Y6499200D01*
X2425400D01*
Y6524600D01*
X2450800D01*
Y6575400D01*
X2425400D01*
Y6600800D01*
X2374600D01*
Y6575400D01*
X2349200D01*
Y6524600D01*
X2374600D01*
X2628600D02*
Y6499200D01*
X2679400D01*
Y6524600D01*
X2704800D01*
Y6575400D01*
X2679400D01*
Y6600800D01*
X2628600D01*
Y6575400D01*
X2603200D01*
Y6524600D01*
X2628600D01*
X3400000Y5673775D02*
X3425400Y5699175D01*
X3450800D01*
X3425400Y5724575D01*
X3450800Y5749975D01*
X3425400D01*
X3400000Y5775375D01*
X3374600Y5749975D01*
X3349200D01*
X3374600Y5724575D01*
X3349200Y5699175D01*
X3374600D01*
X3400000Y5673775D01*
X1750000D02*
X1775400Y5699175D01*
X1800800D01*
X1775400Y5724575D01*
X1800800Y5749975D01*
X1775400D01*
X1750000Y5775375D01*
X1724600Y5749975D01*
X1699200D01*
X1724600Y5724575D01*
X1699200Y5699175D01*
X1724600D01*
X1750000Y5673775D01*
X3400000Y5323349D02*
X3425400Y5348749D01*
X3450800D01*
X3425400Y5374149D01*
X3450800Y5399549D01*
X3425400D01*
X3400000Y5424949D01*
X3374600Y5399549D01*
X3349200D01*
X3374600Y5374149D01*
X3349200Y5348749D01*
X3374600D01*
X3400000Y5323349D01*
X1750000D02*
X1775400Y5348749D01*
X1800800D01*
X1775400Y5374149D01*
X1800800Y5399549D01*
X1775400D01*
X1750000Y5424949D01*
X1724600Y5399549D01*
X1699200D01*
X1724600Y5374149D01*
X1699200Y5348749D01*
X1724600D01*
X1750000Y5323349D01*
X3400000Y4972924D02*
X3425400Y4998324D01*
X3450800D01*
X3425400Y5023724D01*
X3450800Y5049124D01*
X3425400D01*
X3400000Y5074524D01*
X3374600Y5049124D01*
X3349200D01*
X3374600Y5023724D01*
X3349200Y4998324D01*
X3374600D01*
X3400000Y4972924D01*
X1750000D02*
X1775400Y4998324D01*
X1800800D01*
X1775400Y5023724D01*
X1800800Y5049124D01*
X1775400D01*
X1750000Y5074524D01*
X1724600Y5049124D01*
X1699200D01*
X1724600Y5023724D01*
X1699200Y4998324D01*
X1724600D01*
X1750000Y4972924D01*
X4245200Y6049200D02*
X4270600Y6100000D01*
X4245200Y6150800D01*
X4296000Y6125400D01*
X4346800Y6150800D01*
X4321400Y6100000D01*
X4346800Y6049200D01*
X4296000Y6074600D01*
X4245200Y6049200D01*
X4499200D02*
X4524600Y6100000D01*
X4499200Y6150800D01*
X4550000Y6125400D01*
X4600800Y6150800D01*
X4575400Y6100000D01*
X4600800Y6049200D01*
X4550000Y6074600D01*
X4499200Y6049200D01*
X4753200D02*
X4778600Y6100000D01*
X4753200Y6150800D01*
X4804000Y6125400D01*
X4854800Y6150800D01*
X4829400Y6100000D01*
X4854800Y6049200D01*
X4804000Y6074600D01*
X4753200Y6049200D01*
X3400000Y5999200D02*
X3425400Y6024600D01*
X3450800D01*
X3425400Y6050000D01*
X3450800Y6075400D01*
X3425400D01*
X3400000Y6100800D01*
X3374600Y6075400D01*
X3349200D01*
X3374600Y6050000D01*
X3349200Y6024600D01*
X3374600D01*
X3400000Y5999200D01*
Y6949200D02*
X3425400Y6974600D01*
X3450800D01*
X3425400Y7000000D01*
X3450800Y7025400D01*
X3425400D01*
X3400000Y7050800D01*
X3374600Y7025400D01*
X3349200D01*
X3374600Y7000000D01*
X3349200Y6974600D01*
X3374600D01*
X3400000Y6949200D01*
X1600000Y5999200D02*
X1625400Y6024600D01*
X1650800D01*
X1625400Y6050000D01*
X1650800Y6075400D01*
X1625400D01*
X1600000Y6100800D01*
X1574600Y6075400D01*
X1549200D01*
X1574600Y6050000D01*
X1549200Y6024600D01*
X1574600D01*
X1600000Y5999200D01*
Y6949200D02*
X1625400Y6974600D01*
X1650800D01*
X1625400Y7000000D01*
X1650800Y7025400D01*
X1625400D01*
X1600000Y7050800D01*
X1574600Y7025400D01*
X1549200D01*
X1574600Y7000000D01*
X1549200Y6974600D01*
X1574600D01*
X1600000Y6949200D01*
X4549200Y4399200D02*
Y4500800D01*
X4650800D01*
Y4399200D01*
X4549200D01*
Y3891200D02*
Y3992800D01*
X4650800D01*
Y3891200D01*
X4549200D01*
Y3057200D02*
Y3158800D01*
X4650800D01*
Y3057200D01*
X4549200D01*
Y2549200D02*
Y2650800D01*
X4650800D01*
Y2549200D01*
X4549200D01*
Y1749200D02*
Y1850800D01*
X4650800D01*
Y1749200D01*
X4549200D01*
Y1241200D02*
Y1342800D01*
X4650800D01*
Y1241200D01*
X4549200D01*
X349200Y1399200D02*
Y1500800D01*
X450800D01*
Y1399200D01*
X349200D01*
Y1907200D02*
Y2008800D01*
X450800D01*
Y1907200D01*
X349200D01*
Y3991200D02*
Y4092800D01*
X450800D01*
Y3991200D01*
X349200D01*
Y4499200D02*
Y4600800D01*
X450800D01*
Y4499200D01*
X349200D01*
X2724775Y7549200D02*
Y7650800D01*
X2826375D01*
Y7549200D01*
X2724775D01*
X3232775D02*
Y7650800D01*
X3334375D01*
Y7549200D01*
X3232775D01*
X1657949D02*
Y7650800D01*
X1759549D01*
Y7549200D01*
X1657949D01*
X2165949D02*
Y7650800D01*
X2267549D01*
Y7549200D01*
X2165949D01*
X3649200Y749200D02*
Y850800D01*
X3750800D01*
Y749200D01*
X3649200D01*
X3669520Y769520D02*
Y830480D01*
X3730480D01*
Y769520D01*
X3669520D01*
X3759200Y330200D02*
X3784600D01*
X3810000Y355600D01*
X3835400Y330200D01*
X3860800D01*
Y355600D01*
X3835400Y381000D01*
X3860800Y406400D01*
Y431800D01*
X3835400D01*
X3810000Y406400D01*
X3784600Y431800D01*
X3759200D01*
Y406400D01*
X3784600Y381000D01*
X3759200Y355600D01*
Y330200D01*
X4521200Y6807200D02*
X4546600D01*
X4572000Y6832600D01*
X4597400Y6807200D01*
X4622800D01*
Y6832600D01*
X4597400Y6858000D01*
X4622800Y6883400D01*
Y6908800D01*
X4597400D01*
X4572000Y6883400D01*
X4546600Y6908800D01*
X4521200D01*
Y6883400D01*
X4546600Y6858000D01*
X4521200Y6832600D01*
Y6807200D01*
Y6426200D02*
X4546600D01*
X4572000Y6451600D01*
X4597400Y6426200D01*
X4622800D01*
Y6451600D01*
X4597400Y6477000D01*
X4622800Y6502400D01*
Y6527800D01*
X4597400D01*
X4572000Y6502400D01*
X4546600Y6527800D01*
X4521200D01*
Y6502400D01*
X4546600Y6477000D01*
X4521200Y6451600D01*
Y6426200D01*
Y5664200D02*
X4546600D01*
X4572000Y5689600D01*
X4597400Y5664200D01*
X4622800D01*
Y5689600D01*
X4597400Y5715000D01*
X4622800Y5740400D01*
Y5765800D01*
X4597400D01*
X4572000Y5740400D01*
X4546600Y5765800D01*
X4521200D01*
Y5740400D01*
X4546600Y5715000D01*
X4521200Y5689600D01*
Y5664200D01*
Y5283200D02*
X4546600D01*
X4572000Y5308600D01*
X4597400Y5283200D01*
X4622800D01*
Y5308600D01*
X4597400Y5334000D01*
X4622800Y5359400D01*
Y5384800D01*
X4597400D01*
X4572000Y5359400D01*
X4546600Y5384800D01*
X4521200D01*
Y5359400D01*
X4546600Y5334000D01*
X4521200Y5308600D01*
Y5283200D01*
Y3378200D02*
X4546600D01*
X4572000Y3403600D01*
X4597400Y3378200D01*
X4622800D01*
Y3403600D01*
X4597400Y3429000D01*
X4622800Y3454400D01*
Y3479800D01*
X4597400D01*
X4572000Y3454400D01*
X4546600Y3479800D01*
X4521200D01*
Y3454400D01*
X4546600Y3429000D01*
X4521200Y3403600D01*
Y3378200D01*
Y2235200D02*
X4546600D01*
X4572000Y2260600D01*
X4597400Y2235200D01*
X4622800D01*
Y2260600D01*
X4597400Y2286000D01*
X4622800Y2311400D01*
Y2336800D01*
X4597400D01*
X4572000Y2311400D01*
X4546600Y2336800D01*
X4521200D01*
Y2311400D01*
X4546600Y2286000D01*
X4521200Y2260600D01*
Y2235200D01*
X4140200Y7188200D02*
X4165600D01*
X4191000Y7213600D01*
X4216400Y7188200D01*
X4241800D01*
Y7213600D01*
X4216400Y7239000D01*
X4241800Y7264400D01*
Y7289800D01*
X4216400D01*
X4191000Y7264400D01*
X4165600Y7289800D01*
X4140200D01*
Y7264400D01*
X4165600Y7239000D01*
X4140200Y7213600D01*
Y7188200D01*
Y6807200D02*
X4165600D01*
X4191000Y6832600D01*
X4216400Y6807200D01*
X4241800D01*
Y6832600D01*
X4216400Y6858000D01*
X4241800Y6883400D01*
Y6908800D01*
X4216400D01*
X4191000Y6883400D01*
X4165600Y6908800D01*
X4140200D01*
Y6883400D01*
X4165600Y6858000D01*
X4140200Y6832600D01*
Y6807200D01*
Y5664200D02*
X4165600D01*
X4191000Y5689600D01*
X4216400Y5664200D01*
X4241800D01*
Y5689600D01*
X4216400Y5715000D01*
X4241800Y5740400D01*
Y5765800D01*
X4216400D01*
X4191000Y5740400D01*
X4165600Y5765800D01*
X4140200D01*
Y5740400D01*
X4165600Y5715000D01*
X4140200Y5689600D01*
Y5664200D01*
Y4902200D02*
X4165600D01*
X4191000Y4927600D01*
X4216400Y4902200D01*
X4241800D01*
Y4927600D01*
X4216400Y4953000D01*
X4241800Y4978400D01*
Y5003800D01*
X4216400D01*
X4191000Y4978400D01*
X4165600Y5003800D01*
X4140200D01*
Y4978400D01*
X4165600Y4953000D01*
X4140200Y4927600D01*
Y4902200D01*
Y1092200D02*
X4165600D01*
X4191000Y1117600D01*
X4216400Y1092200D01*
X4241800D01*
Y1117600D01*
X4216400Y1143000D01*
X4241800Y1168400D01*
Y1193800D01*
X4216400D01*
X4191000Y1168400D01*
X4165600Y1193800D01*
X4140200D01*
Y1168400D01*
X4165600Y1143000D01*
X4140200Y1117600D01*
Y1092200D01*
Y711200D02*
X4165600D01*
X4191000Y736600D01*
X4216400Y711200D01*
X4241800D01*
Y736600D01*
X4216400Y762000D01*
X4241800Y787400D01*
Y812800D01*
X4216400D01*
X4191000Y787400D01*
X4165600Y812800D01*
X4140200D01*
Y787400D01*
X4165600Y762000D01*
X4140200Y736600D01*
Y711200D01*
Y330200D02*
X4165600D01*
X4191000Y355600D01*
X4216400Y330200D01*
X4241800D01*
Y355600D01*
X4216400Y381000D01*
X4241800Y406400D01*
Y431800D01*
X4216400D01*
X4191000Y406400D01*
X4165600Y431800D01*
X4140200D01*
Y406400D01*
X4165600Y381000D01*
X4140200Y355600D01*
Y330200D01*
X3759200Y5664200D02*
X3784600D01*
X3810000Y5689600D01*
X3835400Y5664200D01*
X3860800D01*
Y5689600D01*
X3835400Y5715000D01*
X3860800Y5740400D01*
Y5765800D01*
X3835400D01*
X3810000Y5740400D01*
X3784600Y5765800D01*
X3759200D01*
Y5740400D01*
X3784600Y5715000D01*
X3759200Y5689600D01*
Y5664200D01*
Y3378200D02*
X3784600D01*
X3810000Y3403600D01*
X3835400Y3378200D01*
X3860800D01*
Y3403600D01*
X3835400Y3429000D01*
X3860800Y3454400D01*
Y3479800D01*
X3835400D01*
X3810000Y3454400D01*
X3784600Y3479800D01*
X3759200D01*
Y3454400D01*
X3784600Y3429000D01*
X3759200Y3403600D01*
Y3378200D01*
Y2235200D02*
X3784600D01*
X3810000Y2260600D01*
X3835400Y2235200D01*
X3860800D01*
Y2260600D01*
X3835400Y2286000D01*
X3860800Y2311400D01*
Y2336800D01*
X3835400D01*
X3810000Y2311400D01*
X3784600Y2336800D01*
X3759200D01*
Y2311400D01*
X3784600Y2286000D01*
X3759200Y2260600D01*
Y2235200D01*
Y1092200D02*
X3784600D01*
X3810000Y1117600D01*
X3835400Y1092200D01*
X3860800D01*
Y1117600D01*
X3835400Y1143000D01*
X3860800Y1168400D01*
Y1193800D01*
X3835400D01*
X3810000Y1168400D01*
X3784600Y1193800D01*
X3759200D01*
Y1168400D01*
X3784600Y1143000D01*
X3759200Y1117600D01*
Y1092200D01*
X3378200Y330200D02*
X3403600D01*
X3429000Y355600D01*
X3454400Y330200D01*
X3479800D01*
Y355600D01*
X3454400Y381000D01*
X3479800Y406400D01*
Y431800D01*
X3454400D01*
X3429000Y406400D01*
X3403600Y431800D01*
X3378200D01*
Y406400D01*
X3403600Y381000D01*
X3378200Y355600D01*
Y330200D01*
X2997200Y7188200D02*
X3022600D01*
X3048000Y7213600D01*
X3073400Y7188200D01*
X3098800D01*
Y7213600D01*
X3073400Y7239000D01*
X3098800Y7264400D01*
Y7289800D01*
X3073400D01*
X3048000Y7264400D01*
X3022600Y7289800D01*
X2997200D01*
Y7264400D01*
X3022600Y7239000D01*
X2997200Y7213600D01*
Y7188200D01*
Y6807200D02*
X3022600D01*
X3048000Y6832600D01*
X3073400Y6807200D01*
X3098800D01*
Y6832600D01*
X3073400Y6858000D01*
X3098800Y6883400D01*
Y6908800D01*
X3073400D01*
X3048000Y6883400D01*
X3022600Y6908800D01*
X2997200D01*
Y6883400D01*
X3022600Y6858000D01*
X2997200Y6832600D01*
Y6807200D01*
Y4902200D02*
X3022600D01*
X3048000Y4927600D01*
X3073400Y4902200D01*
X3098800D01*
Y4927600D01*
X3073400Y4953000D01*
X3098800Y4978400D01*
Y5003800D01*
X3073400D01*
X3048000Y4978400D01*
X3022600Y5003800D01*
X2997200D01*
Y4978400D01*
X3022600Y4953000D01*
X2997200Y4927600D01*
Y4902200D01*
Y4140200D02*
X3022600D01*
X3048000Y4165600D01*
X3073400Y4140200D01*
X3098800D01*
Y4165600D01*
X3073400Y4191000D01*
X3098800Y4216400D01*
Y4241800D01*
X3073400D01*
X3048000Y4216400D01*
X3022600Y4241800D01*
X2997200D01*
Y4216400D01*
X3022600Y4191000D01*
X2997200Y4165600D01*
Y4140200D01*
Y3759200D02*
X3022600D01*
X3048000Y3784600D01*
X3073400Y3759200D01*
X3098800D01*
Y3784600D01*
X3073400Y3810000D01*
X3098800Y3835400D01*
Y3860800D01*
X3073400D01*
X3048000Y3835400D01*
X3022600Y3860800D01*
X2997200D01*
Y3835400D01*
X3022600Y3810000D01*
X2997200Y3784600D01*
Y3759200D01*
Y2616200D02*
X3022600D01*
X3048000Y2641600D01*
X3073400Y2616200D01*
X3098800D01*
Y2641600D01*
X3073400Y2667000D01*
X3098800Y2692400D01*
Y2717800D01*
X3073400D01*
X3048000Y2692400D01*
X3022600Y2717800D01*
X2997200D01*
Y2692400D01*
X3022600Y2667000D01*
X2997200Y2641600D01*
Y2616200D01*
Y1473200D02*
X3022600D01*
X3048000Y1498600D01*
X3073400Y1473200D01*
X3098800D01*
Y1498600D01*
X3073400Y1524000D01*
X3098800Y1549400D01*
Y1574800D01*
X3073400D01*
X3048000Y1549400D01*
X3022600Y1574800D01*
X2997200D01*
Y1549400D01*
X3022600Y1524000D01*
X2997200Y1498600D01*
Y1473200D01*
Y1092200D02*
X3022600D01*
X3048000Y1117600D01*
X3073400Y1092200D01*
X3098800D01*
Y1117600D01*
X3073400Y1143000D01*
X3098800Y1168400D01*
Y1193800D01*
X3073400D01*
X3048000Y1168400D01*
X3022600Y1193800D01*
X2997200D01*
Y1168400D01*
X3022600Y1143000D01*
X2997200Y1117600D01*
Y1092200D01*
Y330200D02*
X3022600D01*
X3048000Y355600D01*
X3073400Y330200D01*
X3098800D01*
Y355600D01*
X3073400Y381000D01*
X3098800Y406400D01*
Y431800D01*
X3073400D01*
X3048000Y406400D01*
X3022600Y431800D01*
X2997200D01*
Y406400D01*
X3022600Y381000D01*
X2997200Y355600D01*
Y330200D01*
X2616200Y7188200D02*
X2641600D01*
X2667000Y7213600D01*
X2692400Y7188200D01*
X2717800D01*
Y7213600D01*
X2692400Y7239000D01*
X2717800Y7264400D01*
Y7289800D01*
X2692400D01*
X2667000Y7264400D01*
X2641600Y7289800D01*
X2616200D01*
Y7264400D01*
X2641600Y7239000D01*
X2616200Y7213600D01*
Y7188200D01*
Y6807200D02*
X2641600D01*
X2667000Y6832600D01*
X2692400Y6807200D01*
X2717800D01*
Y6832600D01*
X2692400Y6858000D01*
X2717800Y6883400D01*
Y6908800D01*
X2692400D01*
X2667000Y6883400D01*
X2641600Y6908800D01*
X2616200D01*
Y6883400D01*
X2641600Y6858000D01*
X2616200Y6832600D01*
Y6807200D01*
Y2616200D02*
X2641600D01*
X2667000Y2641600D01*
X2692400Y2616200D01*
X2717800D01*
Y2641600D01*
X2692400Y2667000D01*
X2717800Y2692400D01*
Y2717800D01*
X2692400D01*
X2667000Y2692400D01*
X2641600Y2717800D01*
X2616200D01*
Y2692400D01*
X2641600Y2667000D01*
X2616200Y2641600D01*
Y2616200D01*
Y1854200D02*
X2641600D01*
X2667000Y1879600D01*
X2692400Y1854200D01*
X2717800D01*
Y1879600D01*
X2692400Y1905000D01*
X2717800Y1930400D01*
Y1955800D01*
X2692400D01*
X2667000Y1930400D01*
X2641600Y1955800D01*
X2616200D01*
Y1930400D01*
X2641600Y1905000D01*
X2616200Y1879600D01*
Y1854200D01*
Y1473200D02*
X2641600D01*
X2667000Y1498600D01*
X2692400Y1473200D01*
X2717800D01*
Y1498600D01*
X2692400Y1524000D01*
X2717800Y1549400D01*
Y1574800D01*
X2692400D01*
X2667000Y1549400D01*
X2641600Y1574800D01*
X2616200D01*
Y1549400D01*
X2641600Y1524000D01*
X2616200Y1498600D01*
Y1473200D01*
Y1092200D02*
X2641600D01*
X2667000Y1117600D01*
X2692400Y1092200D01*
X2717800D01*
Y1117600D01*
X2692400Y1143000D01*
X2717800Y1168400D01*
Y1193800D01*
X2692400D01*
X2667000Y1168400D01*
X2641600Y1193800D01*
X2616200D01*
Y1168400D01*
X2641600Y1143000D01*
X2616200Y1117600D01*
Y1092200D01*
X2235200Y7188200D02*
X2260600D01*
X2286000Y7213600D01*
X2311400Y7188200D01*
X2336800D01*
Y7213600D01*
X2311400Y7239000D01*
X2336800Y7264400D01*
Y7289800D01*
X2311400D01*
X2286000Y7264400D01*
X2260600Y7289800D01*
X2235200D01*
Y7264400D01*
X2260600Y7239000D01*
X2235200Y7213600D01*
Y7188200D01*
Y1854200D02*
X2260600D01*
X2286000Y1879600D01*
X2311400Y1854200D01*
X2336800D01*
Y1879600D01*
X2311400Y1905000D01*
X2336800Y1930400D01*
Y1955800D01*
X2311400D01*
X2286000Y1930400D01*
X2260600Y1955800D01*
X2235200D01*
Y1930400D01*
X2260600Y1905000D01*
X2235200Y1879600D01*
Y1854200D01*
Y1473200D02*
X2260600D01*
X2286000Y1498600D01*
X2311400Y1473200D01*
X2336800D01*
Y1498600D01*
X2311400Y1524000D01*
X2336800Y1549400D01*
Y1574800D01*
X2311400D01*
X2286000Y1549400D01*
X2260600Y1574800D01*
X2235200D01*
Y1549400D01*
X2260600Y1524000D01*
X2235200Y1498600D01*
Y1473200D01*
Y1092200D02*
X2260600D01*
X2286000Y1117600D01*
X2311400Y1092200D01*
X2336800D01*
Y1117600D01*
X2311400Y1143000D01*
X2336800Y1168400D01*
Y1193800D01*
X2311400D01*
X2286000Y1168400D01*
X2260600Y1193800D01*
X2235200D01*
Y1168400D01*
X2260600Y1143000D01*
X2235200Y1117600D01*
Y1092200D01*
Y711200D02*
X2260600D01*
X2286000Y736600D01*
X2311400Y711200D01*
X2336800D01*
Y736600D01*
X2311400Y762000D01*
X2336800Y787400D01*
Y812800D01*
X2311400D01*
X2286000Y787400D01*
X2260600Y812800D01*
X2235200D01*
Y787400D01*
X2260600Y762000D01*
X2235200Y736600D01*
Y711200D01*
X1854200Y4902200D02*
X1879600D01*
X1905000Y4927600D01*
X1930400Y4902200D01*
X1955800D01*
Y4927600D01*
X1930400Y4953000D01*
X1955800Y4978400D01*
Y5003800D01*
X1930400D01*
X1905000Y4978400D01*
X1879600Y5003800D01*
X1854200D01*
Y4978400D01*
X1879600Y4953000D01*
X1854200Y4927600D01*
Y4902200D01*
X1473200Y7188200D02*
X1498600D01*
X1524000Y7213600D01*
X1549400Y7188200D01*
X1574800D01*
Y7213600D01*
X1549400Y7239000D01*
X1574800Y7264400D01*
Y7289800D01*
X1549400D01*
X1524000Y7264400D01*
X1498600Y7289800D01*
X1473200D01*
Y7264400D01*
X1498600Y7239000D01*
X1473200Y7213600D01*
Y7188200D01*
Y6426200D02*
X1498600D01*
X1524000Y6451600D01*
X1549400Y6426200D01*
X1574800D01*
Y6451600D01*
X1549400Y6477000D01*
X1574800Y6502400D01*
Y6527800D01*
X1549400D01*
X1524000Y6502400D01*
X1498600Y6527800D01*
X1473200D01*
Y6502400D01*
X1498600Y6477000D01*
X1473200Y6451600D01*
Y6426200D01*
X1092200Y7188200D02*
X1117600D01*
X1143000Y7213600D01*
X1168400Y7188200D01*
X1193800D01*
Y7213600D01*
X1168400Y7239000D01*
X1193800Y7264400D01*
Y7289800D01*
X1168400D01*
X1143000Y7264400D01*
X1117600Y7289800D01*
X1092200D01*
Y7264400D01*
X1117600Y7239000D01*
X1092200Y7213600D01*
Y7188200D01*
Y6426200D02*
X1117600D01*
X1143000Y6451600D01*
X1168400Y6426200D01*
X1193800D01*
Y6451600D01*
X1168400Y6477000D01*
X1193800Y6502400D01*
Y6527800D01*
X1168400D01*
X1143000Y6502400D01*
X1117600Y6527800D01*
X1092200D01*
Y6502400D01*
X1117600Y6477000D01*
X1092200Y6451600D01*
Y6426200D01*
Y5664200D02*
X1117600D01*
X1143000Y5689600D01*
X1168400Y5664200D01*
X1193800D01*
Y5689600D01*
X1168400Y5715000D01*
X1193800Y5740400D01*
Y5765800D01*
X1168400D01*
X1143000Y5740400D01*
X1117600Y5765800D01*
X1092200D01*
Y5740400D01*
X1117600Y5715000D01*
X1092200Y5689600D01*
Y5664200D01*
Y4902200D02*
X1117600D01*
X1143000Y4927600D01*
X1168400Y4902200D01*
X1193800D01*
Y4927600D01*
X1168400Y4953000D01*
X1193800Y4978400D01*
Y5003800D01*
X1168400D01*
X1143000Y4978400D01*
X1117600Y5003800D01*
X1092200D01*
Y4978400D01*
X1117600Y4953000D01*
X1092200Y4927600D01*
Y4902200D01*
Y3378200D02*
X1117600D01*
X1143000Y3403600D01*
X1168400Y3378200D01*
X1193800D01*
Y3403600D01*
X1168400Y3429000D01*
X1193800Y3454400D01*
Y3479800D01*
X1168400D01*
X1143000Y3454400D01*
X1117600Y3479800D01*
X1092200D01*
Y3454400D01*
X1117600Y3429000D01*
X1092200Y3403600D01*
Y3378200D01*
X711200Y7188200D02*
X736600D01*
X762000Y7213600D01*
X787400Y7188200D01*
X812800D01*
Y7213600D01*
X787400Y7239000D01*
X812800Y7264400D01*
Y7289800D01*
X787400D01*
X762000Y7264400D01*
X736600Y7289800D01*
X711200D01*
Y7264400D01*
X736600Y7239000D01*
X711200Y7213600D01*
Y7188200D01*
Y6807200D02*
X736600D01*
X762000Y6832600D01*
X787400Y6807200D01*
X812800D01*
Y6832600D01*
X787400Y6858000D01*
X812800Y6883400D01*
Y6908800D01*
X787400D01*
X762000Y6883400D01*
X736600Y6908800D01*
X711200D01*
Y6883400D01*
X736600Y6858000D01*
X711200Y6832600D01*
Y6807200D01*
Y3378200D02*
X736600D01*
X762000Y3403600D01*
X787400Y3378200D01*
X812800D01*
Y3403600D01*
X787400Y3429000D01*
X812800Y3454400D01*
Y3479800D01*
X787400D01*
X762000Y3454400D01*
X736600Y3479800D01*
X711200D01*
Y3454400D01*
X736600Y3429000D01*
X711200Y3403600D01*
Y3378200D01*
Y2997200D02*
X736600D01*
X762000Y3022600D01*
X787400Y2997200D01*
X812800D01*
Y3022600D01*
X787400Y3048000D01*
X812800Y3073400D01*
Y3098800D01*
X787400D01*
X762000Y3073400D01*
X736600Y3098800D01*
X711200D01*
Y3073400D01*
X736600Y3048000D01*
X711200Y3022600D01*
Y2997200D01*
Y2616200D02*
X736600D01*
X762000Y2641600D01*
X787400Y2616200D01*
X812800D01*
Y2641600D01*
X787400Y2667000D01*
X812800Y2692400D01*
Y2717800D01*
X787400D01*
X762000Y2692400D01*
X736600Y2717800D01*
X711200D01*
Y2692400D01*
X736600Y2667000D01*
X711200Y2641600D01*
Y2616200D01*
Y2235200D02*
X736600D01*
X762000Y2260600D01*
X787400Y2235200D01*
X812800D01*
Y2260600D01*
X787400Y2286000D01*
X812800Y2311400D01*
Y2336800D01*
X787400D01*
X762000Y2311400D01*
X736600Y2336800D01*
X711200D01*
Y2311400D01*
X736600Y2286000D01*
X711200Y2260600D01*
Y2235200D01*
Y1473200D02*
X736600D01*
X762000Y1498600D01*
X787400Y1473200D01*
X812800D01*
Y1498600D01*
X787400Y1524000D01*
X812800Y1549400D01*
Y1574800D01*
X787400D01*
X762000Y1549400D01*
X736600Y1574800D01*
X711200D01*
Y1549400D01*
X736600Y1524000D01*
X711200Y1498600D01*
Y1473200D01*
Y1092200D02*
X736600D01*
X762000Y1117600D01*
X787400Y1092200D01*
X812800D01*
Y1117600D01*
X787400Y1143000D01*
X812800Y1168400D01*
Y1193800D01*
X787400D01*
X762000Y1168400D01*
X736600Y1193800D01*
X711200D01*
Y1168400D01*
X736600Y1143000D01*
X711200Y1117600D01*
Y1092200D01*
Y711200D02*
X736600D01*
X762000Y736600D01*
X787400Y711200D01*
X812800D01*
Y736600D01*
X787400Y762000D01*
X812800Y787400D01*
Y812800D01*
X787400D01*
X762000Y787400D01*
X736600Y812800D01*
X711200D01*
Y787400D01*
X736600Y762000D01*
X711200Y736600D01*
Y711200D01*
X330200Y7188200D02*
X355600D01*
X381000Y7213600D01*
X406400Y7188200D01*
X431800D01*
Y7213600D01*
X406400Y7239000D01*
X431800Y7264400D01*
Y7289800D01*
X406400D01*
X381000Y7264400D01*
X355600Y7289800D01*
X330200D01*
Y7264400D01*
X355600Y7239000D01*
X330200Y7213600D01*
Y7188200D01*
Y6807200D02*
X355600D01*
X381000Y6832600D01*
X406400Y6807200D01*
X431800D01*
Y6832600D01*
X406400Y6858000D01*
X431800Y6883400D01*
Y6908800D01*
X406400D01*
X381000Y6883400D01*
X355600Y6908800D01*
X330200D01*
Y6883400D01*
X355600Y6858000D01*
X330200Y6832600D01*
Y6807200D01*
Y5664200D02*
X355600D01*
X381000Y5689600D01*
X406400Y5664200D01*
X431800D01*
Y5689600D01*
X406400Y5715000D01*
X431800Y5740400D01*
Y5765800D01*
X406400D01*
X381000Y5740400D01*
X355600Y5765800D01*
X330200D01*
Y5740400D01*
X355600Y5715000D01*
X330200Y5689600D01*
Y5664200D01*
Y5283200D02*
X355600D01*
X381000Y5308600D01*
X406400Y5283200D01*
X431800D01*
Y5308600D01*
X406400Y5334000D01*
X431800Y5359400D01*
Y5384800D01*
X406400D01*
X381000Y5359400D01*
X355600Y5384800D01*
X330200D01*
Y5359400D01*
X355600Y5334000D01*
X330200Y5308600D01*
Y5283200D01*
Y4902200D02*
X355600D01*
X381000Y4927600D01*
X406400Y4902200D01*
X431800D01*
Y4927600D01*
X406400Y4953000D01*
X431800Y4978400D01*
Y5003800D01*
X406400D01*
X381000Y4978400D01*
X355600Y5003800D01*
X330200D01*
Y4978400D01*
X355600Y4953000D01*
X330200Y4927600D01*
Y4902200D01*
Y2235200D02*
X355600D01*
X381000Y2260600D01*
X406400Y2235200D01*
X431800D01*
Y2260600D01*
X406400Y2286000D01*
X431800Y2311400D01*
Y2336800D01*
X406400D01*
X381000Y2311400D01*
X355600Y2336800D01*
X330200D01*
Y2311400D01*
X355600Y2286000D01*
X330200Y2260600D01*
Y2235200D01*
Y1092200D02*
X355600D01*
X381000Y1117600D01*
X406400Y1092200D01*
X431800D01*
Y1117600D01*
X406400Y1143000D01*
X431800Y1168400D01*
Y1193800D01*
X406400D01*
X381000Y1168400D01*
X355600Y1193800D01*
X330200D01*
Y1168400D01*
X355600Y1143000D01*
X330200Y1117600D01*
Y1092200D01*
X1099200Y299200D02*
Y400800D01*
X1200800D01*
Y299200D01*
X1099200D01*
X1119520Y319520D02*
Y380480D01*
X1180480D01*
Y319520D01*
X1119520D01*
X2449200Y6699200D02*
Y6800800D01*
X2550800D01*
Y6699200D01*
X2449200D01*
X2469520Y6719520D02*
Y6780480D01*
X2530480D01*
Y6719520D01*
X2469520D01*
X2499200Y3049200D02*
Y3150800D01*
X2600800D01*
Y3049200D01*
X2499200D01*
X2519520Y3069520D02*
Y3130480D01*
X2580480D01*
Y3069520D01*
X2519520D01*
X2249200Y2749200D02*
Y2850800D01*
X2350800D01*
Y2749200D01*
X2249200D01*
X2269520Y2769520D02*
Y2830480D01*
X2330480D01*
Y2769520D01*
X2269520D01*
X2645121Y3298496D02*
Y3400096D01*
X2746721D01*
Y3298496D01*
X2645121D01*
X2665441Y3318816D02*
Y3379776D01*
X2726401D01*
Y3318816D01*
X2665441D01*
X2909147Y6612521D02*
Y6714121D01*
X3010747D01*
Y6612521D01*
X2909147D01*
X2929467Y6632841D02*
Y6693801D01*
X2990427D01*
Y6632841D01*
X2929467D01*
X3095122Y5848496D02*
Y5950096D01*
X3196722D01*
Y5848496D01*
X3095122D01*
X3115442Y5868816D02*
Y5929776D01*
X3176402D01*
Y5868816D01*
X3115442D01*
X3795200Y7195200D02*
Y7296800D01*
X3896800D01*
Y7195200D01*
X3795200D01*
X3815520Y7215520D02*
Y7276480D01*
X3876480D01*
Y7215520D01*
X3815520D01*
X1999200Y6999200D02*
Y7100800D01*
X2100800D01*
Y6999200D01*
X1999200D01*
X2019520Y7019520D02*
Y7080480D01*
X2080480D01*
Y7019520D01*
X2019520D01*
X1694471Y6342927D02*
Y6444527D01*
X1796071D01*
Y6342927D01*
X1694471D01*
X1714791Y6363247D02*
Y6424207D01*
X1775751D01*
Y6363247D01*
X1714791D01*
X2099200Y2199200D02*
Y2300800D01*
X2200800D01*
Y2199200D01*
X2099200D01*
X2119520Y2219520D02*
Y2280480D01*
X2180480D01*
Y2219520D01*
X2119520D01*
X1999200Y4249200D02*
Y4350800D01*
X2100800D01*
Y4249200D01*
X1999200D01*
X2019520Y4269520D02*
Y4330480D01*
X2080480D01*
Y4269520D01*
X2019520D01*
X1949200Y2299200D02*
Y2400800D01*
X2050800D01*
Y2299200D01*
X1949200D01*
X1969520Y2319520D02*
Y2380480D01*
X2030480D01*
Y2319520D01*
X1969520D01*
X1949200Y399200D02*
Y500800D01*
X2050800D01*
Y399200D01*
X1949200D01*
X1969520Y419520D02*
Y480480D01*
X2030480D01*
Y419520D01*
X1969520D01*
X999200Y5499200D02*
Y5600800D01*
X1100800D01*
Y5499200D01*
X999200D01*
X1019520Y5519520D02*
Y5580480D01*
X1080480D01*
Y5519520D01*
X1019520D01*
X1549200Y5099200D02*
Y5200800D01*
X1650800D01*
Y5099200D01*
X1549200D01*
X1569520Y5119520D02*
Y5180480D01*
X1630480D01*
Y5119520D01*
X1569520D01*
X649200Y6949200D02*
Y7050800D01*
X750800D01*
Y6949200D01*
X649200D01*
X669520Y6969520D02*
Y7030480D01*
X730480D01*
Y6969520D01*
X669520D01*
D64*
X4450800Y150000D02*
G03*
X4450800Y150000I-50800J0D01*
G01*
X4200800D02*
G03*
X4200800Y150000I-50800J0D01*
G01*
X3950800D02*
G03*
X3950800Y150000I-50800J0D01*
G01*
X3700800D02*
G03*
X3700800Y150000I-50800J0D01*
G01*
X1788800Y562000D02*
G03*
X1788800Y562000I-50800J0D01*
G01*
Y816000D02*
G03*
X1788800Y816000I-50800J0D01*
G01*
Y1070000D02*
G03*
X1788800Y1070000I-50800J0D01*
G01*
Y1324000D02*
G03*
X1788800Y1324000I-50800J0D01*
G01*
Y1578000D02*
G03*
X1788800Y1578000I-50800J0D01*
G01*
Y1832000D02*
G03*
X1788800Y1832000I-50800J0D01*
G01*
Y2086000D02*
G03*
X1788800Y2086000I-50800J0D01*
G01*
Y2340000D02*
G03*
X1788800Y2340000I-50800J0D01*
G01*
Y2594000D02*
G03*
X1788800Y2594000I-50800J0D01*
G01*
Y2848000D02*
G03*
X1788800Y2848000I-50800J0D01*
G01*
Y3102000D02*
G03*
X1788800Y3102000I-50800J0D01*
G01*
Y3356000D02*
G03*
X1788800Y3356000I-50800J0D01*
G01*
Y3610000D02*
G03*
X1788800Y3610000I-50800J0D01*
G01*
Y3864000D02*
G03*
X1788800Y3864000I-50800J0D01*
G01*
Y4118000D02*
G03*
X1788800Y4118000I-50800J0D01*
G01*
X3312800D02*
G03*
X3312800Y4118000I-50800J0D01*
G01*
Y3864000D02*
G03*
X3312800Y3864000I-50800J0D01*
G01*
Y3610000D02*
G03*
X3312800Y3610000I-50800J0D01*
G01*
Y3356000D02*
G03*
X3312800Y3356000I-50800J0D01*
G01*
Y3102000D02*
G03*
X3312800Y3102000I-50800J0D01*
G01*
Y2848000D02*
G03*
X3312800Y2848000I-50800J0D01*
G01*
Y2594000D02*
G03*
X3312800Y2594000I-50800J0D01*
G01*
Y2340000D02*
G03*
X3312800Y2340000I-50800J0D01*
G01*
Y2086000D02*
G03*
X3312800Y2086000I-50800J0D01*
G01*
Y1832000D02*
G03*
X3312800Y1832000I-50800J0D01*
G01*
Y1578000D02*
G03*
X3312800Y1578000I-50800J0D01*
G01*
Y1324000D02*
G03*
X3312800Y1324000I-50800J0D01*
G01*
Y1070000D02*
G03*
X3312800Y1070000I-50800J0D01*
G01*
Y816000D02*
G03*
X3312800Y816000I-50800J0D01*
G01*
Y562000D02*
G03*
X3312800Y562000I-50800J0D01*
G01*
D65*
X4430480Y150000D02*
G03*
X4430480Y150000I-30480J0D01*
G01*
X4180480D02*
G03*
X4180480Y150000I-30480J0D01*
G01*
X3930480D02*
G03*
X3930480Y150000I-30480J0D01*
G01*
X3680480D02*
G03*
X3680480Y150000I-30480J0D01*
G01*
%TF.MD5,7e57b0783d35fb75c543bf2b2312119f*%
M02*
