%TF.GenerationSoftware,Altium Limited,Altium Designer,22.7.1 (60)*%
G04 Layer_Color=255*
%FSLAX45Y45*%
%MOMM*%
%TF.SameCoordinates,6F5B2F55-B7AD-49D5-9618-4F223791D6AE*%
%TF.FilePolarity,Positive*%
%TF.FileFunction,Pads,Top*%
%TF.Part,Single*%
G01*
G75*
%TA.AperFunction,ViaPad*%
%ADD13C,1.52400*%
%TA.AperFunction,ComponentPad*%
%ADD14C,3.81000*%
%TA.AperFunction,ViaPad*%
%ADD15C,4.00000*%
%TA.AperFunction,ComponentPad*%
%ADD16R,1.92000X1.92000*%
%ADD17C,1.92000*%
%ADD18C,1.20000*%
%ADD19R,1.20000X1.20000*%
%ADD20C,1.50100*%
%ADD21C,1.41400*%
%ADD22C,1.80000*%
%ADD23R,1.80000X1.80000*%
D13*
X4400000Y150000D02*
D03*
X4150000D02*
D03*
X3900000D02*
D03*
X3650000D02*
D03*
D14*
X400000Y2750000D02*
D03*
Y3258000D02*
D03*
X4600000Y4450000D02*
D03*
Y3942000D02*
D03*
Y3108000D02*
D03*
Y2600000D02*
D03*
Y1800000D02*
D03*
Y1292000D02*
D03*
X400000Y1450000D02*
D03*
Y1958000D02*
D03*
Y4042000D02*
D03*
Y4550000D02*
D03*
X2775575Y7600000D02*
D03*
X3283575D02*
D03*
X1708749D02*
D03*
X2216749D02*
D03*
D15*
X510827Y7522599D02*
D03*
X4510826D02*
D03*
Y522599D02*
D03*
X500000Y500000D02*
D03*
D16*
X3750000Y4454000D02*
D03*
Y3104000D02*
D03*
Y1854000D02*
D03*
D17*
Y4200000D02*
D03*
Y3946000D02*
D03*
Y2850000D02*
D03*
Y2596000D02*
D03*
Y1600000D02*
D03*
Y1346000D02*
D03*
D18*
X1250000Y7000000D02*
D03*
Y5350000D02*
D03*
X3900000Y6950000D02*
D03*
Y5300000D02*
D03*
X1250000Y3150000D02*
D03*
Y1500000D02*
D03*
X1096000Y4650000D02*
D03*
Y3888000D02*
D03*
X1350000D02*
D03*
X3400000Y5724575D02*
D03*
X1750000D02*
D03*
X3400000Y5374149D02*
D03*
X1750000D02*
D03*
X3400000Y5023724D02*
D03*
X1750000D02*
D03*
X3400000Y7000000D02*
D03*
X1600000D02*
D03*
D19*
X1350000Y4650000D02*
D03*
X3400000Y6050000D02*
D03*
X1600000D02*
D03*
D20*
X754000Y6000000D02*
D03*
X500000D02*
D03*
X246000D02*
D03*
X754000Y6557975D02*
D03*
X500000D02*
D03*
X246000D02*
D03*
X4296000Y6664025D02*
D03*
X4550000D02*
D03*
X4804000D02*
D03*
X4296000Y6100000D02*
D03*
X4550000D02*
D03*
X4804000D02*
D03*
D21*
X3846000Y7550000D02*
D03*
X4100000D02*
D03*
X892324D02*
D03*
X1146324D02*
D03*
X2400000Y6550000D02*
D03*
X2654000D02*
D03*
D22*
X1738000Y562000D02*
D03*
Y816000D02*
D03*
Y1070000D02*
D03*
Y1324000D02*
D03*
Y1578000D02*
D03*
Y1832000D02*
D03*
Y2086000D02*
D03*
Y2340000D02*
D03*
Y2594000D02*
D03*
Y2848000D02*
D03*
Y3102000D02*
D03*
Y3356000D02*
D03*
Y3610000D02*
D03*
Y3864000D02*
D03*
Y4118000D02*
D03*
X3262000D02*
D03*
Y3864000D02*
D03*
Y3610000D02*
D03*
Y3356000D02*
D03*
Y3102000D02*
D03*
Y2848000D02*
D03*
Y2594000D02*
D03*
Y2340000D02*
D03*
Y2086000D02*
D03*
Y1832000D02*
D03*
Y1578000D02*
D03*
Y1324000D02*
D03*
Y1070000D02*
D03*
Y816000D02*
D03*
D23*
Y562000D02*
D03*
%TF.MD5,fb7fd74ed5fbe25e9b82efcc6db989e7*%
M02*
