%TF.GenerationSoftware,Altium Limited,Altium Designer,22.7.1 (60)*%
G04 Layer_Color=8388736*
%FSLAX45Y45*%
%MOMM*%
%TF.SameCoordinates,6F5B2F55-B7AD-49D5-9618-4F223791D6AE*%
%TF.FilePolarity,Negative*%
%TF.FileFunction,Soldermask,Top*%
%TF.Part,Single*%
G01*
G75*
%TA.AperFunction,ViaPad*%
%ADD26C,1.72720*%
%TA.AperFunction,ComponentPad*%
%ADD27C,4.01320*%
%TA.AperFunction,ViaPad*%
%ADD28C,4.20320*%
%TA.AperFunction,ComponentPad*%
%ADD29R,2.12320X2.12320*%
%ADD30C,2.12320*%
%ADD31C,1.40320*%
%ADD32R,1.40320X1.40320*%
%ADD33C,1.70420*%
%ADD34C,1.61720*%
%ADD35C,2.00320*%
%ADD36R,2.00320X2.00320*%
%TA.AperFunction,ViaPad*%
%ADD37C,1.00320*%
%ADD38C,0.85320*%
D26*
X4400000Y150000D02*
D03*
X4150000D02*
D03*
X3900000D02*
D03*
X3650000D02*
D03*
D27*
X400000Y2750000D02*
D03*
Y3258000D02*
D03*
X4600000Y4450000D02*
D03*
Y3942000D02*
D03*
Y3108000D02*
D03*
Y2600000D02*
D03*
Y1800000D02*
D03*
Y1292000D02*
D03*
X400000Y1450000D02*
D03*
Y1958000D02*
D03*
Y4042000D02*
D03*
Y4550000D02*
D03*
X2775575Y7600000D02*
D03*
X3283575D02*
D03*
X1708749D02*
D03*
X2216749D02*
D03*
D28*
X510827Y7522599D02*
D03*
X4510826D02*
D03*
Y522599D02*
D03*
X500000Y500000D02*
D03*
D29*
X3750000Y4454000D02*
D03*
Y3104000D02*
D03*
Y1854000D02*
D03*
D30*
Y4200000D02*
D03*
Y3946000D02*
D03*
Y2850000D02*
D03*
Y2596000D02*
D03*
Y1600000D02*
D03*
Y1346000D02*
D03*
D31*
X1250000Y7000000D02*
D03*
Y5350000D02*
D03*
X3900000Y6950000D02*
D03*
Y5300000D02*
D03*
X1250000Y3150000D02*
D03*
Y1500000D02*
D03*
X1096000Y4650000D02*
D03*
Y3888000D02*
D03*
X1350000D02*
D03*
X3400000Y5724575D02*
D03*
X1750000D02*
D03*
X3400000Y5374149D02*
D03*
X1750000D02*
D03*
X3400000Y5023724D02*
D03*
X1750000D02*
D03*
X3400000Y7000000D02*
D03*
X1600000D02*
D03*
D32*
X1350000Y4650000D02*
D03*
X3400000Y6050000D02*
D03*
X1600000D02*
D03*
D33*
X754000Y6000000D02*
D03*
X500000D02*
D03*
X246000D02*
D03*
X754000Y6557975D02*
D03*
X500000D02*
D03*
X246000D02*
D03*
X4296000Y6664025D02*
D03*
X4550000D02*
D03*
X4804000D02*
D03*
X4296000Y6100000D02*
D03*
X4550000D02*
D03*
X4804000D02*
D03*
D34*
X3846000Y7550000D02*
D03*
X4100000D02*
D03*
X892324D02*
D03*
X1146324D02*
D03*
X2400000Y6550000D02*
D03*
X2654000D02*
D03*
D35*
X1738000Y562000D02*
D03*
Y816000D02*
D03*
Y1070000D02*
D03*
Y1324000D02*
D03*
Y1578000D02*
D03*
Y1832000D02*
D03*
Y2086000D02*
D03*
Y2340000D02*
D03*
Y2594000D02*
D03*
Y2848000D02*
D03*
Y3102000D02*
D03*
Y3356000D02*
D03*
Y3610000D02*
D03*
Y3864000D02*
D03*
Y4118000D02*
D03*
X3262000D02*
D03*
Y3864000D02*
D03*
Y3610000D02*
D03*
Y3356000D02*
D03*
Y3102000D02*
D03*
Y2848000D02*
D03*
Y2594000D02*
D03*
Y2340000D02*
D03*
Y2086000D02*
D03*
Y1832000D02*
D03*
Y1578000D02*
D03*
Y1324000D02*
D03*
Y1070000D02*
D03*
Y816000D02*
D03*
D36*
Y562000D02*
D03*
D37*
X3700000Y800000D02*
D03*
X1150000Y350000D02*
D03*
X2500000Y6750000D02*
D03*
X2550000Y3100000D02*
D03*
X2300000Y2800000D02*
D03*
X2695921Y3349296D02*
D03*
X2959947Y6663321D02*
D03*
X3145922Y5899296D02*
D03*
X3846000Y7246000D02*
D03*
X2050000Y7050000D02*
D03*
X1745271Y6393727D02*
D03*
X2150000Y2250000D02*
D03*
X2050000Y4300000D02*
D03*
X2000000Y2350000D02*
D03*
Y450000D02*
D03*
X1050000Y5550000D02*
D03*
X1600000Y5150000D02*
D03*
X700000Y7000000D02*
D03*
D38*
X3810000Y381000D02*
D03*
X4572000Y6858000D02*
D03*
Y6477000D02*
D03*
Y5715000D02*
D03*
Y5334000D02*
D03*
Y3429000D02*
D03*
Y2286000D02*
D03*
X4191000Y7239000D02*
D03*
Y6858000D02*
D03*
Y5715000D02*
D03*
Y4953000D02*
D03*
Y1143000D02*
D03*
Y762000D02*
D03*
Y381000D02*
D03*
X3810000Y5715000D02*
D03*
Y3429000D02*
D03*
Y2286000D02*
D03*
Y1143000D02*
D03*
X3429000Y381000D02*
D03*
X3048000Y7239000D02*
D03*
Y6858000D02*
D03*
Y4953000D02*
D03*
Y4191000D02*
D03*
Y3810000D02*
D03*
Y2667000D02*
D03*
Y1524000D02*
D03*
Y1143000D02*
D03*
Y381000D02*
D03*
X2667000Y7239000D02*
D03*
Y6858000D02*
D03*
Y2667000D02*
D03*
Y1905000D02*
D03*
Y1524000D02*
D03*
Y1143000D02*
D03*
X2286000Y7239000D02*
D03*
Y1905000D02*
D03*
Y1524000D02*
D03*
Y1143000D02*
D03*
Y762000D02*
D03*
X1905000Y4953000D02*
D03*
X1524000Y7239000D02*
D03*
Y6477000D02*
D03*
X1143000Y7239000D02*
D03*
Y6477000D02*
D03*
Y5715000D02*
D03*
Y4953000D02*
D03*
Y3429000D02*
D03*
X762000Y7239000D02*
D03*
Y6858000D02*
D03*
Y3429000D02*
D03*
Y3048000D02*
D03*
Y2667000D02*
D03*
Y2286000D02*
D03*
Y1524000D02*
D03*
Y1143000D02*
D03*
Y762000D02*
D03*
X381000Y7239000D02*
D03*
Y6858000D02*
D03*
Y5715000D02*
D03*
Y5334000D02*
D03*
Y4953000D02*
D03*
Y2286000D02*
D03*
Y1143000D02*
D03*
%TF.MD5,599135624129b15ae50450da9ea6be11*%
M02*
